<svg width="30" height="30" viewBox="0 0 30 30" fill="none" xmlns="http://www.w3.org/2000/svg">
<circle cx="15" cy="15" r="14" fill="white" stroke="white" stroke-width="1.5"/>
<path d="M17.1992 12.8009C18.0741 12.8009 18.9131 13.1485 19.5318 13.7671C20.1504 14.3857 20.498 15.2248 20.498 16.0997V19.9483H18.2988V16.0997C18.2988 15.8081 18.1829 15.5284 17.9767 15.3222C17.7705 15.1159 17.4908 15.0001 17.1992 15.0001C16.9076 15.0001 16.6279 15.1159 16.4217 15.3222C16.2154 15.5284 16.0996 15.8081 16.0996 16.0997V19.9483H13.9004V16.0997C13.9004 15.2248 14.2479 14.3857 14.8666 13.7671C15.4852 13.1485 16.3243 12.8009 17.1992 12.8009Z" fill="#1B5ACC" stroke="#1B5ACC" stroke-linecap="round" stroke-linejoin="round"/>
<path d="M11.7011 13.3507H9.50195V19.9483H11.7011V13.3507Z" fill="#1B5ACC" stroke="#1B5ACC" stroke-linecap="round" stroke-linejoin="round"/>
<path d="M10.6016 11.7013C11.2088 11.7013 11.7011 11.209 11.7011 10.6017C11.7011 9.99438 11.2088 9.50208 10.6016 9.50208C9.99426 9.50208 9.50195 9.99438 9.50195 10.6017C9.50195 11.209 9.99426 11.7013 10.6016 11.7013Z" fill="#1B5ACC" stroke="#1B5ACC" stroke-linecap="round" stroke-linejoin="round"/>
</svg>
